<svg width="292" height="292" viewBox="0 0 292 292" fill="none" xmlns="http://www.w3.org/2000/svg">
<g id="Mask group">
<mask id="mask0_1366_9223" style="mask-type:alpha" maskUnits="userSpaceOnUse" x="37" y="109" width="218" height="74">
<rect id="Rectangle 10" x="37" y="109" width="218" height="74" fill="white"/>
</mask>
<g mask="url(#mask0_1366_9223)">
<g id="Group 6">
<path id="Ellipse 4" d="M68.0332 311.111C23.3939 266.472 21.9227 195.62 64.6844 152.858C107.446 110.096 178.298 111.568 222.937 156.207C267.577 200.846 269.048 271.698 226.286 314.46C183.524 357.222 112.672 355.75 68.0332 311.111Z" stroke="#F9B712"/>
<path id="Ellipse 1" d="M95.5442 283.601C66.0043 254.061 64.48 207.774 92.0394 180.215C119.599 152.655 165.886 154.18 195.426 183.72C224.965 213.26 226.49 259.546 198.93 287.106C171.371 314.665 125.084 313.141 95.5442 283.601Z" stroke="#FF0000"/>
<path id="Ellipse 5" d="M103.282 275.863C78.7848 251.366 77.8664 212.625 101.158 189.333C124.451 166.041 163.191 166.96 187.689 191.457C212.186 215.955 213.105 254.695 189.812 277.987C166.52 301.279 127.78 300.361 103.282 275.863Z" stroke="#10C181"/>
<path id="Ellipse 2" d="M86.0881 293.058C51.009 257.979 49.2272 202.967 82.01 170.184C114.793 137.402 169.804 139.183 204.884 174.263C239.963 209.342 241.744 264.353 208.962 297.136C176.179 329.919 121.167 328.137 86.0881 293.058Z" stroke="#F9B712"/>
<path id="Ellipse 3" d="M77.9436 302.109C38.5907 262.756 37.1747 200.425 74.7121 162.888C112.25 125.35 174.581 126.766 213.934 166.119C253.286 205.472 254.702 267.803 217.165 305.341C179.628 342.878 117.296 341.462 77.9436 302.109Z" stroke="#FF0000"/>
</g>
</g>
</g>
</svg>
